Moderustic-Light.ufo
<glyph name="quotedbl" format="2">
  <advance width="409"/>
  <unicode hex="0022"/>
  <outline>
    <contour>
      <point x="85" y="572" type="line"/>
      <point x="123" y="572" type="line"/>
      <point x="138" y="803" type="line"/>
      <point x="70" y="803" type="line"/>
    </contour>
    <contour>
      <point x="286" y="572" type="line"/>
      <point x="324" y="572" type="line"/>
      <point x="339" y="803" type="line"/>
      <point x="271" y="803" type="line"/>
    </contour>
  </outline>
</glyph>
<glyph name="O" format="2">
  <advance width="775"/>
  <unicode hex="004F"/>
  <anchor x="388" y="719" name="top"/>
  <anchor x="388" y="-20" name="bottom"/>
  <anchor x="513" y="-1" name="ogonek"/>
  <anchor x="6" y="500" name="topgr"/>
  <outline>
    <contour>
      <point x="390" y="35" type="curve" smooth="yes" name="dv02"/>
      <point x="221" y="35"/>
      <point x="124" y="146"/>
      <point x="124" y="350" type="curve" smooth="yes"/>
      <point x="124" y="548"/>
      <point x="220" y="665"/>
      <point x="386" y="665" type="curve" smooth="yes" name="dv03"/>
      <point x="558" y="665"/>
      <point x="651" y="554"/>
      <point x="651" y="350" type="curve" smooth="yes" name="dv05"/>
      <point x="651" y="153"/>
      <point x="550" y="35"/>
    </contour>
    <contour>
      <point x="388" y="-20" type="curve" smooth="yes" name="dv01"/>
      <point x="577" y="-20"/>
      <point x="712" y="110"/>
      <point x="712" y="350" type="curve" smooth="yes" name="dv06"/>
      <point x="712" y="578"/>
      <point x="590" y="720"/>
      <point x="389" y="720" type="curve" smooth="yes" name="dv04"/>
      <point x="194" y="720"/>
      <point x="63" y="587"/>
      <point x="63" y="350" type="curve" smooth="yes"/>
      <point x="63" y="110"/>
      <point x="198" y="-20"/>
    </contour>
  </outline>
</glyph>
<glyph name="R" format="2">
  <advance width="648"/>
  <unicode hex="0052"/>
  <anchor x="324" y="719" name="top"/>
  <anchor x="324" y="-20" name="bottom"/>
  <outline>
    <contour>
      <point x="98" y="0" type="line"/>
      <point x="158" y="0" type="line" name="ab01"/>
      <point x="158" y="646" type="line" name="sv01"/>
      <point x="344" y="646" type="line" smooth="yes"/>
      <point x="464" y="646"/>
      <point x="518" y="583"/>
      <point x="518" y="482" type="curve" smooth="yes"/>
      <point x="518" y="381"/>
      <point x="465" y="328"/>
      <point x="348" y="328" type="curve" smooth="yes"/>
      <point x="110" y="328" type="line" name="dv02"/>
      <point x="110" y="274" type="line" name="dv01"/>
      <point x="344" y="274" type="line" smooth="yes"/>
      <point x="489" y="274"/>
      <point x="579" y="348"/>
      <point x="579" y="484" type="curve" smooth="yes"/>
      <point x="579" y="619"/>
      <point x="492" y="700"/>
      <point x="348" y="700" type="curve" smooth="yes" name="at01"/>
      <point x="98" y="700" type="line"/>
    </contour>
    <contour>
      <point x="529" y="0" type="line" name="ab02"/>
      <point x="597" y="0" type="line"/>
      <point x="427" y="333" type="line"/>
      <point x="386" y="281" type="line"/>
    </contour>
  </outline>
</glyph>
<glyph name="h" format="2">
  <advance width="606"/>
  <unicode hex="0068"/>
  <anchor x="308" y="-20" name="bottom"/>
  <anchor x="126" y="750" name="top"/>
  <outline>
    <contour>
      <point x="94" y="0" type="line" name="ab03"/>
      <point x="154" y="0" type="line"/>
      <point x="154" y="750" type="line" name="ab01"/>
      <point x="94" y="750" type="line"/>
    </contour>
    <contour>
      <point x="461" y="0" type="line" name="ab01"/>
      <point x="521" y="0" type="line"/>
      <point x="521" y="314" type="line" smooth="yes"/>
      <point x="521" y="461"/>
      <point x="456" y="520"/>
      <point x="361" y="520" type="curve" smooth="yes" name="at01"/>
      <point x="247" y="520"/>
      <point x="158" y="435"/>
      <point x="150" y="327" type="curve"/>
      <point x="151" y="277" type="line"/>
      <point x="154" y="237" type="line" name="iv01"/>
      <point x="154" y="383"/>
      <point x="222" y="469"/>
      <point x="340" y="469" type="curve" smooth="yes" name="sv01"/>
      <point x="419" y="469"/>
      <point x="461" y="431"/>
      <point x="461" y="307" type="curve" smooth="yes"/>
    </contour>
  </outline>
</glyph>
<glyph name="l" format="2">
  <advance width="300"/>
  <unicode hex="006C"/>
  <anchor x="132" y="750" name="top"/>
  <anchor x="184" y="-20" name="bottom"/>
  <anchor x="210" y="750" name="topright"/>
  <outline>
    <contour>
      <point x="261" y="48" type="line"/>
      <point x="240" y="39"/>
      <point x="210.681" y="33"/>
      <point x="189.255" y="33" type="curve" smooth="yes" name="dv02"/>
      <point x="145.277" y="33"/>
      <point x="134" y="58"/>
      <point x="134" y="131" type="curve" smooth="yes"/>
      <point x="134" y="750" type="line" name="ab01"/>
      <point x="74" y="750" type="line"/>
      <point x="74" y="132" type="line" smooth="yes"/>
      <point x="74" y="25"/>
      <point x="105.367" y="-20"/>
      <point x="189.735" y="-20" type="curve" smooth="yes" name="dv01"/>
      <point x="214.612" y="-20"/>
      <point x="233" y="-15"/>
      <point x="273" y="3" type="curve"/>
    </contour>
  </outline>
</glyph>
<glyph name="r" format="2">
  <advance width="410"/>
  <unicode hex="0072"/>
  <anchor x="229" y="520" name="top"/>
  <anchor x="126" y="-20" name="bottom"/>
  <outline>
    <contour>
      <point x="94" y="0" type="line" name="ab01"/>
      <point x="154" y="0" type="line"/>
      <point x="154" y="246" type="line" smooth="yes"/>
      <point x="154" y="380"/>
      <point x="234" y="470"/>
      <point x="359" y="470" type="curve" name="sv01"/>
      <point x="359" y="520" type="line" name="at01"/>
      <point x="264" y="517"/>
      <point x="183" y="458"/>
      <point x="154" y="365" type="curve" name="iv01"/>
      <point x="154" y="500" type="line"/>
      <point x="94" y="500" type="line" name="av01"/>
    </contour>
  </outline>
</glyph>
<glyph name="x" format="2">
  <advance width="574"/>
  <unicode hex="0078"/>
  <anchor x="287" y="520" name="top"/>
  <anchor x="287" y="-20" name="bottom"/>
  <outline>
    <contour>
      <point x="62" y="0" type="line" name="ab01"/>
      <point x="136" y="0" type="line"/>
      <point x="289" y="236" type="line" name="iv01"/>
      <point x="442" y="0" type="line" name="ab02"/>
      <point x="514" y="0" type="line"/>
      <point x="350.059" y="262.726" type="line"/>
      <point x="340.059" y="237.274" type="line"/>
      <point x="504" y="500" type="line" name="av02"/>
      <point x="434" y="500" type="line"/>
      <point x="271.827" y="250.422" type="line" name="iv02"/>
      <point x="308.173" y="250.422" type="line"/>
      <point x="146" y="500" type="line"/>
      <point x="71" y="500" type="line" name="av01"/>
      <point x="242.17" y="236.42" type="line"/>
      <point x="232.18" y="261.573" type="line"/>
    </contour>
  </outline>
</glyph>
<glyph name="OE" format="2">
  <advance width="968"/>
  <unicode hex="0152"/>
  <anchor x="484" y="719" name="top"/>
  <anchor x="484" y="-20" name="bottom"/>
  <outline>
    <contour>
      <point x="397" y="0" type="curve" smooth="yes"/>
      <point x="565.418" y="0" type="line" name="ab01"/>
      <point x="565.418" y="124.089"/>
      <point x="565.418" y="553.768"/>
      <point x="565.418" y="700" type="curve"/>
      <point x="530.086" y="700"/>
      <point x="429.489" y="700"/>
      <point x="397" y="700" type="curve" smooth="yes" name="at01"/>
      <point x="206" y="700"/>
      <point x="73" y="557"/>
      <point x="73" y="350" type="curve" smooth="yes"/>
      <point x="73" y="142"/>
      <point x="205" y="0"/>
    </contour>
    <contour>
      <point x="134" y="346" type="curve" smooth="yes"/>
      <point x="134" y="534"/>
      <point x="239" y="646"/>
      <point x="410" y="646" type="curve" smooth="yes"/>
      <point x="510.418" y="646" type="line" name="sv02"/>
      <point x="510.418" y="534.147"/>
      <point x="510.418" y="163.572"/>
      <point x="510.418" y="54" type="curve" name="sv01"/>
      <point x="491.752" y="54"/>
      <point x="429.053" y="54"/>
      <point x="410" y="54" type="curve" smooth="yes"/>
      <point x="239" y="54"/>
      <point x="134" y="165"/>
    </contour>
    <contour>
      <point x="516.418" y="0" type="line"/>
      <point x="892.418" y="0" type="line" name="ab01"/>
      <point x="892.418" y="54" type="line" name="sv01"/>
      <point x="571.418" y="54" type="line"/>
      <point x="571.418" y="338" type="line" name="dv01"/>
      <point x="852.418" y="338" type="line"/>
      <point x="852.418" y="392" type="line"/>
      <point x="571.418" y="392" type="line" name="dv02"/>
      <point x="571.418" y="646" type="line" name="sv02"/>
      <point x="880.418" y="646" type="line"/>
      <point x="880.418" y="700" type="line" name="at01"/>
      <point x="516.418" y="700" type="line"/>
    </contour>
  </outline>
</glyph>
<glyph name="scedilla" format="2">
  <advance width="507"/>
  <unicode hex="015F"/>
  <anchor x="253" y="520" name="top"/>
  <anchor x="233" y="-218" name="bottom"/>
  <outline>
    <contour>
      <point x="67" y="70" type="line"/>
      <point x="105" y="19"/>
      <point x="170" y="-20"/>
      <point x="249" y="-20" type="curve" smooth="yes"/>
      <point x="352" y="-20"/>
      <point x="429" y="46"/>
      <point x="429" y="128" type="curve" smooth="yes"/>
      <point x="429" y="196"/>
      <point x="376" y="242"/>
      <point x="263" y="274" type="curve" smooth="yes"/>
      <point x="169" y="300"/>
      <point x="136" y="331"/>
      <point x="136" y="380" type="curve" smooth="yes"/>
      <point x="136" y="431"/>
      <point x="172" y="469"/>
      <point x="241" y="469" type="curve" smooth="yes"/>
      <point x="294" y="469"/>
      <point x="341" y="446"/>
      <point x="384" y="394" type="curve"/>
      <point x="420" y="430" type="line"/>
      <point x="382" y="481"/>
      <point x="318" y="520"/>
      <point x="241" y="520" type="curve" smooth="yes"/>
      <point x="145" y="520"/>
      <point x="76" y="458"/>
      <point x="76" y="382" type="curve" smooth="yes"/>
      <point x="76" y="310"/>
      <point x="138" y="255"/>
      <point x="248" y="227" type="curve" smooth="yes"/>
      <point x="331" y="206"/>
      <point x="369" y="175"/>
      <point x="369" y="125" type="curve" smooth="yes"/>
      <point x="369" y="65"/>
      <point x="312" y="31"/>
      <point x="247" y="31" type="curve" smooth="yes"/>
      <point x="193" y="31"/>
      <point x="146" y="54"/>
      <point x="103" y="106" type="curve"/>
    </contour>
    <contour>
      <point x="142" y="-205" type="line"/>
      <point x="162" y="-211"/>
      <point x="185" y="-218"/>
      <point x="223" y="-218" type="curve" smooth="yes"/>
      <point x="301" y="-218"/>
      <point x="342" y="-188"/>
      <point x="342" y="-140" type="curve" smooth="yes"/>
      <point x="342" y="-92"/>
      <point x="302" y="-64"/>
      <point x="244" y="-64" type="curve"/>
      <point x="284.194" y="12.137" type="line"/>
      <point x="239.194" y="12.137" type="line"/>
      <point x="189" y="-82" type="line"/>
      <point x="201" y="-79"/>
      <point x="211" y="-78"/>
      <point x="221" y="-78" type="curve" smooth="yes"/>
      <point x="266" y="-78"/>
      <point x="290" y="-98"/>
      <point x="290" y="-132" type="curve" smooth="yes"/>
      <point x="290" y="-166"/>
      <point x="265" y="-188"/>
      <point x="220" y="-188" type="curve" smooth="yes"/>
      <point x="199" y="-188"/>
      <point x="175" y="-183"/>
      <point x="157" y="-177" type="curve"/>
    </contour>
  </outline>
</glyph>
<glyph name="Schwa" format="2">
  <advance width="779"/>
  <unicode hex="018F"/>
  <anchor x="390" y="719" name="top"/>
  <anchor x="390" y="-20" name="bottom"/>
  <outline>
    <contour>
      <point x="659" y="338" type="line" name="dv05"/>
      <point x="658" y="392" type="line" name="dv06"/>
      <point x="77" y="392" type="line" name="sh04"/>
      <point x="75" y="377" name=".dv02"/>
      <point x="73" y="356"/>
      <point x="73" y="331" type="curve" smooth="yes" name="sh01"/>
      <point x="73" y="129"/>
      <point x="203" y="-20"/>
      <point x="392" y="-20" type="curve" smooth="yes" name="dv01"/>
      <point x="581" y="-20"/>
      <point x="706" y="129"/>
      <point x="706" y="356" type="curve" smooth="yes" name="sh03"/>
      <point x="706" y="581"/>
      <point x="583" y="720"/>
      <point x="384" y="720" type="curve" smooth="yes"/>
      <point x="278" y="720"/>
      <point x="191" y="680"/>
      <point x="123" y="599" type="curve"/>
      <point x="166" y="556" type="line"/>
      <point x="220" y="628" name=".sh02"/>
      <point x="294" y="665"/>
      <point x="389" y="665" type="curve" smooth="yes"/>
      <point x="553" y="665" name=".dv01"/>
      <point x="645" y="556"/>
      <point x="645" y="360" type="curve" smooth="yes"/>
      <point x="645" y="156" name=".sh01"/>
      <point x="545" y="35"/>
      <point x="390" y="35" type="curve" smooth="yes" name="dv02"/>
      <point x="235" y="35" name=".sh03"/>
      <point x="134" y="155" name=".dv03"/>
      <point x="134" y="338" type="curve" name="sh02"/>
    </contour>
  </outline>
</glyph>
<glyph name="caron" format="2">
  <advance width="346"/>
  <unicode hex="02C7"/>
  <outline>
    <contour>
      <point x="139" y="550" type="line"/>
      <point x="207" y="550" type="line"/>
      <point x="309" y="701" type="line"/>
      <point x="244" y="701" type="line"/>
      <point x="173" y="583" type="line"/>
      <point x="102" y="701" type="line"/>
      <point x="37" y="701" type="line"/>
    </contour>
  </outline>
</glyph>
<glyph name="brevecomb" format="2">
  <advance width="336"/>
  <unicode hex="0306"/>
  <anchor x="168" y="500" name="_top"/>
  <anchor x="168" y="680" name="top"/>
  <outline>
    <contour>
      <point x="50" y="700" type="line"/>
      <point x="57" y="615.19"/>
      <point x="101" y="563"/>
      <point x="169" y="563" type="curve" smooth="yes"/>
      <point x="236" y="563"/>
      <point x="281" y="613.886"/>
      <point x="289" y="700" type="curve"/>
      <point x="239" y="700" type="line"/>
      <point x="235" y="643.267"/>
      <point x="209" y="608"/>
      <point x="168" y="608" type="curve" smooth="yes"/>
      <point x="128" y="608"/>
      <point x="104" y="640.2"/>
      <point x="100" y="700" type="curve"/>
    </contour>
  </outline>
</glyph>
<glyph name="lownumeralsign" format="2">
  <advance width="241"/>
  <unicode hex="0375"/>
  <outline>
    <contour>
      <point x="34" y="-149" type="line"/>
      <point x="123" y="-149" type="line"/>
      <point x="202" y="68" type="line"/>
      <point x="155" y="68" type="line"/>
    </contour>
  </outline>
</glyph>
<glyph name="Njecyr" format="2">
  <advance width="970"/>
  <unicode hex="040A"/>
  <outline>
    <contour>
      <point x="98" y="0" type="line" name="ab01"/>
      <point x="158" y="0" type="line"/>
      <point x="158" y="357" type="line" name="dv01"/>
      <point x="528" y="357" type="line"/>
      <point x="528" y="0" type="line" name="ab02"/>
      <point x="588" y="0" type="line"/>
      <point x="588" y="700" type="line" name="at01"/>
      <point x="528" y="700" type="line"/>
      <point x="528" y="411" type="line"/>
      <point x="158" y="411" type="line" name="dv02"/>
      <point x="158" y="700" type="line" name="at02"/>
      <point x="98" y="700" type="line"/>
    </contour>
    <contour>
      <point x="538" y="0" type="line"/>
      <point x="693" y="0" type="line" smooth="yes"/>
      <point x="856" y="0"/>
      <point x="911" y="87.215"/>
      <point x="911" y="209.316" type="curve" smooth="yes"/>
      <point x="911" y="334.687"/>
      <point x="852" y="411"/>
      <point x="674" y="411" type="curve" smooth="yes"/>
      <point x="545" y="411" type="line"/>
      <point x="540" y="357" type="line"/>
      <point x="673" y="357" type="line" smooth="yes"/>
      <point x="805" y="357"/>
      <point x="850" y="318.703"/>
      <point x="850" y="206.063" type="curve" smooth="yes"/>
      <point x="850" y="100.182"/>
      <point x="819" y="54"/>
      <point x="675" y="54" type="curve" smooth="yes"/>
      <point x="575" y="54" type="line"/>
    </contour>
  </outline>
</glyph>
<glyph name="Pecyr" format="2">
  <advance width="680"/>
  <unicode hex="041F"/>
  <anchor x="340" y="-20" name="bottom"/>
  <anchor x="340" y="719" name="top"/>
  <outline>
    <contour>
      <point x="97" y="0" type="line"/>
      <point x="157" y="0" type="line"/>
      <point x="157" y="646" type="line"/>
      <point x="523" y="646" type="line"/>
      <point x="523" y="0" type="line"/>
      <point x="583" y="0" type="line"/>
      <point x="583" y="700" type="line"/>
      <point x="97" y="700" type="line"/>
    </contour>
  </outline>
</glyph>
<glyph name="Efcyr" format="2">
  <advance width="836"/>
  <unicode hex="0424"/>
  <outline>
    <contour>
      <point x="388" y="-20" type="line"/>
      <point x="448" y="-20" type="line"/>
      <point x="448" y="60" type="line"/>
      <point x="619" y="60"/>
      <point x="763" y="172"/>
      <point x="763" y="355" type="curve" smooth="yes"/>
      <point x="763" y="536"/>
      <point x="621" y="642"/>
      <point x="448" y="642" type="curve"/>
      <point x="448" y="722" type="line"/>
      <point x="388" y="722" type="line"/>
      <point x="388" y="642" type="line"/>
      <point x="215" y="642"/>
      <point x="73" y="536"/>
      <point x="73" y="355" type="curve" smooth="yes"/>
      <point x="73" y="172"/>
      <point x="217" y="60"/>
      <point x="388" y="60" type="curve"/>
    </contour>
    <contour>
      <point x="448" y="587" type="line"/>
      <point x="591" y="587"/>
      <point x="702" y="510"/>
      <point x="702" y="357" type="curve" smooth="yes"/>
      <point x="702" y="212"/>
      <point x="602" y="115"/>
      <point x="448" y="115" type="curve"/>
    </contour>
    <contour>
      <point x="388" y="115" type="line"/>
      <point x="237" y="115"/>
      <point x="134" y="207"/>
      <point x="134" y="355" type="curve" smooth="yes"/>
      <point x="134" y="497"/>
      <point x="230" y="587"/>
      <point x="388" y="587" type="curve"/>
    </contour>
  </outline>
</glyph>
<glyph name="Tsecyr" format="2">
  <advance width="760"/>
  <unicode hex="0426"/>
  <outline>
    <contour>
      <point x="107" y="0" type="line"/>
      <point x="576" y="0" type="line" smooth="yes"/>
      <point x="647" y="0"/>
      <point x="639" y="-42"/>
      <point x="639" y="-140" type="curve"/>
      <point x="709" y="-140" type="line"/>
      <point x="709" y="38"/>
      <point x="677" y="54"/>
      <point x="577" y="54" type="curve"/>
      <point x="577" y="701" type="line"/>
      <point x="517" y="701" type="line"/>
      <point x="517" y="54" type="line"/>
      <point x="167" y="54" type="line"/>
      <point x="167" y="701" type="line"/>
      <point x="107" y="701" type="line"/>
    </contour>
  </outline>
</glyph>
<glyph name="Yacyr" format="2">
  <advance width="648"/>
  <unicode hex="042F"/>
  <anchor x="324" y="719" name="top"/>
  <anchor x="324" y="-20" name="bottom"/>
  <outline>
    <contour>
      <point x="490" y="0" type="line"/>
      <point x="550" y="0" type="line"/>
      <point x="550" y="700" type="line"/>
      <point x="292.204" y="700" type="line" smooth="yes"/>
      <point x="143.713" y="700"/>
      <point x="54" y="619"/>
      <point x="54" y="484" type="curve" smooth="yes"/>
      <point x="54" y="348"/>
      <point x="146.878" y="274"/>
      <point x="296.516" y="274" type="curve" smooth="yes"/>
      <point x="538" y="274" type="line"/>
      <point x="538" y="328" type="line"/>
      <point x="291.25" y="328" type="line" smooth="yes"/>
      <point x="169.949" y="328"/>
      <point x="115" y="381"/>
      <point x="115" y="482" type="curve" smooth="yes"/>
      <point x="115" y="583"/>
      <point x="171.25" y="646"/>
      <point x="296.25" y="646" type="curve" smooth="yes"/>
      <point x="490" y="646" type="line"/>
    </contour>
    <contour>
      <point x="51" y="0" type="line"/>
      <point x="119" y="0" type="line"/>
      <point x="282" y="278" type="line"/>
      <point x="241" y="330" type="line"/>
    </contour>
  </outline>
</glyph>
<glyph name="vecyr" format="2">
  <advance width="536"/>
  <unicode hex="0432"/>
  <anchor x="263" y="520" name="top"/>
  <anchor x="263" y="-20" name="bottom"/>
  <outline>
    <contour>
      <point x="90" y="0" type="line"/>
      <point x="300" y="0" type="line" smooth="yes"/>
      <point x="429" y="0"/>
      <point x="486" y="43"/>
      <point x="486" y="133" type="curve" smooth="yes"/>
      <point x="486" y="215"/>
      <point x="438" y="256"/>
      <point x="334" y="261" type="curve"/>
      <point x="422" y="279"/>
      <point x="455" y="311"/>
      <point x="455" y="381" type="curve" smooth="yes"/>
      <point x="455" y="466"/>
      <point x="407" y="500"/>
      <point x="283" y="500" type="curve" smooth="yes"/>
      <point x="90" y="500" type="line"/>
    </contour>
    <contour>
      <point x="150" y="280" type="line"/>
      <point x="150" y="450" type="line"/>
      <point x="286" y="450" type="line" smooth="yes"/>
      <point x="364" y="450"/>
      <point x="395" y="428"/>
      <point x="395" y="378" type="curve" smooth="yes"/>
      <point x="395" y="318"/>
      <point x="350" y="280"/>
      <point x="275" y="280" type="curve" smooth="yes"/>
    </contour>
    <contour>
      <point x="150" y="50" type="line"/>
      <point x="150" y="235" type="line"/>
      <point x="294" y="235" type="line" smooth="yes"/>
      <point x="383" y="235"/>
      <point x="427" y="203"/>
      <point x="427" y="138" type="curve" smooth="yes"/>
      <point x="427" y="73"/>
      <point x="384" y="50"/>
      <point x="295" y="50" type="curve" smooth="yes"/>
    </contour>
  </outline>
</glyph>
<glyph name="checyr" format="2">
  <advance width="575"/>
  <unicode hex="0447"/>
  <anchor x="288" y="-20" name="bottom"/>
  <anchor x="288" y="520" name="top"/>
  <outline>
    <contour>
      <point x="425" y="0" type="line" name="ab01"/>
      <point x="485" y="0" type="line" name="sh01"/>
      <point x="485" y="500" type="line" name="av01"/>
      <point x="425" y="500" type="line"/>
      <point x="425" y="376" type="line" smooth="yes"/>
      <point x="425" y="278"/>
      <point x="339" y="225"/>
      <point x="253.63" y="225" type="curve" smooth="yes"/>
      <point x="182.79" y="225"/>
      <point x="146" y="259.48"/>
      <point x="146" y="340" type="curve" smooth="yes"/>
      <point x="146" y="500" type="line"/>
      <point x="86" y="500" type="line"/>
      <point x="86" y="340" type="line" smooth="yes"/>
      <point x="86" y="223.5"/>
      <point x="144.5" y="175"/>
      <point x="242.26" y="175" type="curve" smooth="yes"/>
      <point x="326.01" y="175"/>
      <point x="396.86" y="210.6"/>
      <point x="425" y="279.05" type="curve"/>
    </contour>
  </outline>
</glyph>
<glyph name="minus" format="2">
  <advance width="566"/>
  <unicode hex="2212"/>
  <outline>
    <contour>
      <point x="50" y="324" type="line"/>
      <point x="516" y="324" type="line"/>
      <point x="516" y="356" type="line"/>
      <point x="50" y="356" type="line"/>
    </contour>
  </outline>
</glyph>
<glyph name="Ccedilla.ss10" format="2">
  <advance width="715"/>
  <anchor x="377" y="719" name="top"/>
  <anchor x="377" y="-217" name="bottom"/>
  <outline>
    <contour>
      <point x="629" y="163" type="line"/>
      <point x="569.205" y="71.734"/>
      <point x="502.625" y="35"/>
      <point x="397" y="35" type="curve" smooth="yes"/>
      <point x="232" y="35"/>
      <point x="123" y="162"/>
      <point x="123" y="356" type="curve" smooth="yes"/>
      <point x="123" y="545"/>
      <point x="226" y="665"/>
      <point x="388" y="665" type="curve" smooth="yes"/>
      <point x="489.781" y="665"/>
      <point x="562.902" y="624.658"/>
      <point x="620" y="537" type="curve"/>
      <point x="643" y="603" type="line"/>
      <point x="575" y="682"/>
      <point x="488" y="720"/>
      <point x="388" y="720" type="curve" smooth="yes"/>
      <point x="193" y="720"/>
      <point x="63" y="575"/>
      <point x="63" y="357" type="curve" smooth="yes"/>
      <point x="63" y="134"/>
      <point x="198" y="-20"/>
      <point x="395" y="-20" type="curve" smooth="yes"/>
      <point x="497" y="-20"/>
      <point x="584" y="18"/>
      <point x="652" y="97" type="curve"/>
    </contour>
    <contour>
      <point x="286" y="-204" type="line"/>
      <point x="306" y="-210"/>
      <point x="329" y="-217"/>
      <point x="367" y="-217" type="curve" smooth="yes"/>
      <point x="445" y="-217"/>
      <point x="486" y="-187"/>
      <point x="486" y="-139" type="curve" smooth="yes"/>
      <point x="486" y="-91"/>
      <point x="446" y="-63"/>
      <point x="388" y="-63" type="curve"/>
      <point x="428.194" y="13.137" type="line"/>
      <point x="383.194" y="13.137" type="line"/>
      <point x="333" y="-81" type="line"/>
      <point x="345" y="-78"/>
      <point x="355" y="-77"/>
      <point x="365" y="-77" type="curve" smooth="yes"/>
      <point x="410" y="-77"/>
      <point x="434" y="-97"/>
      <point x="434" y="-131" type="curve" smooth="yes"/>
      <point x="434" y="-165"/>
      <point x="409" y="-187"/>
      <point x="364" y="-187" type="curve" smooth="yes"/>
      <point x="343" y="-187"/>
      <point x="319" y="-182"/>
      <point x="301" y="-176" type="curve"/>
    </contour>
  </outline>
</glyph>
<glyph name="Euro.osf" format="2">
  <advance width="730"/>
  <outline>
    <contour>
      <point x="546" y="106" type="line"/>
      <point x="495.905" y="50"/>
      <point x="432.742" y="31"/>
      <point x="364.134" y="31" type="curve" smooth="yes" name="dv02"/>
      <point x="238.896" y="31"/>
      <point x="179" y="108.886"/>
      <point x="179" y="264.658" type="curve" smooth="yes"/>
      <point x="179" y="419.377"/>
      <point x="237.894" y="492"/>
      <point x="360.045" y="492" type="curve" smooth="yes" name="sv01"/>
      <point x="426.574" y="492"/>
      <point x="489.831" y="473"/>
      <point x="540" y="417" type="curve"/>
      <point x="576" y="453" type="line"/>
      <point x="533.19" y="506"/>
      <point x="461.482" y="543"/>
      <point x="365.159" y="543" type="curve" smooth="yes" name="at01"/>
      <point x="204.621" y="543"/>
      <point x="119" y="439.783"/>
      <point x="119" y="261.5" type="curve" smooth="yes"/>
      <point x="119" y="83.217"/>
      <point x="204.543" y="-20"/>
      <point x="364.935" y="-20" type="curve" smooth="yes" name="dv01"/>
      <point x="462.24" y="-20"/>
      <point x="539.229" y="17"/>
      <point x="582" y="70" type="curve"/>
    </contour>
    <contour>
      <point x="20" y="300" type="line"/>
      <point x="472" y="300" type="line"/>
      <point x="476" y="329" type="line"/>
      <point x="24" y="329" type="line"/>
    </contour>
    <contour>
      <point x="15" y="195" type="line"/>
      <point x="453" y="195" type="line"/>
      <point x="457" y="224" type="line"/>
      <point x="19" y="224" type="line"/>
    </contour>
  </outline>
</glyph>
<glyph name="G.ss15" format="2">
  <advance width="747"/>
  <anchor x="383" y="-19" name="bottom"/>
  <anchor x="383" y="719" name="top"/>
  <outline>
    <contour>
      <point x="370" y="309" type="line" name="dv05"/>
      <point x="638" y="309" type="line" name="sv02"/>
      <point x="622.568" y="330.238" type="line"/>
      <point x="630.782" y="125.246"/>
      <point x="520.783" y="35"/>
      <point x="385" y="35" type="curve" smooth="yes" name="dv04"/>
      <point x="236" y="35"/>
      <point x="123" y="145"/>
      <point x="123" y="351" type="curve" smooth="yes" name="dv07"/>
      <point x="123" y="550"/>
      <point x="228" y="665"/>
      <point x="385" y="665" type="curve" smooth="yes"/>
      <point x="478" y="665"/>
      <point x="571" y="625"/>
      <point x="641" y="546" type="curve"/>
      <point x="647" y="595" type="line"/>
      <point x="595.291" y="670.672"/>
      <point x="493.715" y="720"/>
      <point x="385" y="720" type="curve" smooth="yes"/>
      <point x="173" y="720"/>
      <point x="63" y="561"/>
      <point x="63" y="356" type="curve" smooth="yes" name="dv08"/>
      <point x="63" y="132"/>
      <point x="197" y="-20"/>
      <point x="389" y="-20" type="curve" smooth="yes" name="dv03"/>
      <point x="572" y="-20"/>
      <point x="684" y="117"/>
      <point x="684" y="316" type="curve" smooth="yes" name="sv03"/>
      <point x="684" y="359" type="line" name="sv01"/>
      <point x="370" y="359" type="line" name="dv06"/>
    </contour>
  </outline>
</glyph>
<glyph name="acutecomb.loclPLK" format="2">
  <advance width="287"/>
  <anchor x="144" y="700" name="top"/>
  <anchor x="128" y="500" name="_top"/>
  <outline>
    <contour>
      <point x="100" y="549" type="line"/>
      <point x="151" y="549" type="line"/>
      <point x="206" y="700" type="line"/>
      <point x="131" y="700" type="line"/>
    </contour>
  </outline>
</glyph>
<glyph name="ampersand.ss09" format="2">
  <advance width="660"/>
  <outline>
    <contour>
      <point x="520" y="310" type="line"/>
      <point x="520" y="122"/>
      <point x="441" y="35"/>
      <point x="295" y="35" type="curve" smooth="yes"/>
      <point x="181" y="35"/>
      <point x="117" y="88"/>
      <point x="117" y="183" type="curve" smooth="yes"/>
      <point x="117" y="288"/>
      <point x="216" y="349"/>
      <point x="307" y="388" type="curve"/>
      <point x="172" y="549" type="line" smooth="yes"/>
      <point x="127" y="602"/>
      <point x="145" y="646"/>
      <point x="214" y="646" type="curve" smooth="yes"/>
      <point x="451" y="646" type="line"/>
      <point x="451" y="700" type="line"/>
      <point x="214" y="700" type="line" smooth="yes"/>
      <point x="149.594" y="700"/>
      <point x="106.793" y="673.786"/>
      <point x="92.554" y="635.737" type="curve" smooth="yes"/>
      <point x="60.84" y="550.992"/>
      <point x="201.864" y="427.27"/>
      <point x="234" y="389" type="curve"/>
      <point x="158" y="352"/>
      <point x="57" y="296"/>
      <point x="57" y="179" type="curve" smooth="yes"/>
      <point x="57" y="63"/>
      <point x="137" y="-20"/>
      <point x="286" y="-20" type="curve" smooth="yes"/>
      <point x="465" y="-20"/>
      <point x="580" y="99"/>
      <point x="580" y="310" type="curve"/>
    </contour>
    <contour>
      <point x="479" y="113" type="line"/>
      <point x="592" y="0" type="line"/>
      <point x="621" y="0" type="line"/>
      <point x="621" y="55" type="line"/>
      <point x="514" y="162" type="line"/>
    </contour>
  </outline>
</glyph>
<glyph name="caron.salt" format="2">
  <advance width="135"/>
  <anchor x="0" y="700" name="_topright"/>
  <outline>
    <contour>
      <point x="5" y="540" type="line"/>
      <point x="45" y="540" type="line"/>
      <point x="100" y="700" type="line"/>
      <point x="40" y="700" type="line"/>
    </contour>
  </outline>
</glyph>
<glyph name="exclamdown.case" format="2">
  <advance width="258"/>
  <outline>
    <contour>
      <point x="93" y="-44" type="line"/>
      <point x="164" y="-44" type="line"/>
      <point x="148" y="457" type="line"/>
      <point x="109" y="457" type="line"/>
    </contour>
    <contour>
      <point x="129" y="646.178" type="curve" smooth="yes"/>
      <point x="152.06" y="646.178"/>
      <point x="168.911" y="664.803"/>
      <point x="168.911" y="686.089" type="curve" smooth="yes"/>
      <point x="168.911" y="708.262"/>
      <point x="152.06" y="726"/>
      <point x="129" y="726" type="curve" smooth="yes"/>
      <point x="106.827" y="726"/>
      <point x="89.089" y="708.262"/>
      <point x="89.089" y="686.089" type="curve" smooth="yes"/>
      <point x="89.089" y="664.803"/>
      <point x="106.827" y="646.178"/>
    </contour>
  </outline>
</glyph>
<glyph name="four.osf" format="2">
  <advance width="685"/>
  <outline>
    <contour>
      <point x="77" y="31" type="line"/>
      <point x="432" y="31" type="line"/>
      <point x="432" y="-150" type="line"/>
      <point x="492" y="-150" type="line"/>
      <point x="492" y="31" type="line"/>
      <point x="628" y="31" type="line"/>
      <point x="628" y="85" type="line"/>
      <point x="492" y="85" type="line"/>
      <point x="492" y="550" type="line"/>
      <point x="403" y="550" type="line"/>
      <point x="77" y="66" type="line"/>
    </contour>
    <contour>
      <point x="158" y="85" type="line"/>
      <point x="432" y="491" type="line"/>
      <point x="432" y="85" type="line"/>
    </contour>
  </outline>
</glyph>
<glyph name="germandbls.ss10" format="2">
  <advance width="730"/>
  <outline>
    <contour>
      <point x="164" y="0" type="line"/>
      <point x="164" y="538" type="line" smooth="yes"/>
      <point x="164" y="648"/>
      <point x="221.098" y="700"/>
      <point x="339.686" y="700" type="curve" smooth="yes"/>
      <point x="441.804" y="700"/>
      <point x="500" y="661.951"/>
      <point x="500" y="591.707" type="curve" smooth="yes"/>
      <point x="500" y="487.317"/>
      <point x="394" y="460"/>
      <point x="394" y="376" type="curve" smooth="yes"/>
      <point x="394" y="254"/>
      <point x="591" y="237.558"/>
      <point x="591" y="119.378" type="curve" smooth="yes"/>
      <point x="591" y="62.857"/>
      <point x="537" y="31"/>
      <point x="466" y="31" type="curve" smooth="yes"/>
      <point x="389" y="31"/>
      <point x="323" y="65"/>
      <point x="290" y="117" type="curve"/>
      <point x="270" y="55" type="line"/>
      <point x="313" y="7"/>
      <point x="379" y="-20"/>
      <point x="462" y="-20" type="curve" smooth="yes"/>
      <point x="581" y="-20"/>
      <point x="652" y="43"/>
      <point x="652" y="122" type="curve" smooth="yes"/>
      <point x="652" y="263"/>
      <point x="454" y="296"/>
      <point x="454" y="377" type="curve" smooth="yes"/>
      <point x="454" y="432"/>
      <point x="561" y="476"/>
      <point x="561" y="581" type="curve" smooth="yes"/>
      <point x="561" y="683"/>
      <point x="472.169" y="751"/>
      <point x="337.316" y="751" type="curve" smooth="yes"/>
      <point x="205.674" y="751"/>
      <point x="104" y="686"/>
      <point x="104" y="535" type="curve" smooth="yes"/>
      <point x="104" y="0" type="line"/>
    </contour>
  </outline>
</glyph>
<glyph name="hryvnia.osf" format="2">
  <advance width="734"/>
  <outline>
    <contour>
      <point x="71" y="209" type="line"/>
      <point x="193.661" y="209" type="line"/>
      <point x="174.486" y="187.597"/>
      <point x="165.148" y="163.147"/>
      <point x="165.148" y="135.207" type="curve" smooth="yes"/>
      <point x="165.148" y="49.214"/>
      <point x="251.019" y="-20"/>
      <point x="365.885" y="-20" type="curve" smooth="yes"/>
      <point x="453.986" y="-20"/>
      <point x="526.474" y="20.899"/>
      <point x="568.852" y="74.383" type="curve"/>
      <point x="528.705" y="112.136" type="line"/>
      <point x="479.134" y="57.604"/>
      <point x="424.953" y="33.484"/>
      <point x="362.702" y="33.484" type="curve" smooth="yes"/>
      <point x="287.77" y="33.484"/>
      <point x="222.06" y="69.139"/>
      <point x="222.06" y="132.061" type="curve" smooth="yes"/>
      <point x="222.06" y="164.666"/>
      <point x="238.954" y="189.538"/>
      <point x="274.662" y="209" type="curve"/>
      <point x="663" y="209" type="line"/>
      <point x="663" y="239" type="line"/>
      <point x="71" y="239" type="line"/>
    </contour>
    <contour>
      <point x="71" y="287" type="line"/>
      <point x="663" y="287" type="line"/>
      <point x="663" y="317" type="line"/>
      <point x="522.663" y="317" type="line"/>
      <point x="546.374" y="341.571"/>
      <point x="558.815" y="370.023"/>
      <point x="558.815" y="401.576" type="curve" smooth="yes"/>
      <point x="558.815" y="481.277"/>
      <point x="481.866" y="546.296"/>
      <point x="374.806" y="546.296" type="curve" smooth="yes"/>
      <point x="288.936" y="546.296"/>
      <point x="217.563" y="505.397"/>
      <point x="175.185" y="451.914" type="curve"/>
      <point x="215.332" y="414.16" type="line"/>
      <point x="265.02" y="468.693"/>
      <point x="319.33" y="492.813"/>
      <point x="380.573" y="492.813" type="curve" smooth="yes"/>
      <point x="460.304" y="492.813"/>
      <point x="501.903" y="452.962"/>
      <point x="501.903" y="399.479" type="curve" smooth="yes"/>
      <point x="501.903" y="364.698"/>
      <point x="484.488" y="338.717"/>
      <point x="439.758" y="317" type="curve"/>
      <point x="71" y="317" type="line"/>
    </contour>
  </outline>
</glyph>
<glyph name="iogonek.ss11" format="2">
  <advance width="370"/>
  <anchor x="183" y="-20" name="bottom"/>
  <anchor x="185" y="683" name="top"/>
  <outline>
    <contour>
      <point x="155" y="0" type="line" name="ab01"/>
      <point x="215" y="0" type="line"/>
      <point x="215" y="500" type="line"/>
      <point x="155" y="500" type="line" name="av01"/>
    </contour>
    <contour>
      <point x="45" y="450" type="line"/>
      <point x="325" y="450" type="line"/>
      <point x="325" y="500" type="line"/>
      <point x="45" y="500" type="line"/>
    </contour>
    <contour>
      <point x="45" y="0" type="line"/>
      <point x="325" y="0" type="line"/>
      <point x="325" y="50" type="line"/>
      <point x="45" y="50" type="line"/>
    </contour>
    <contour>
      <point x="147" y="650" type="curve" smooth="yes"/>
      <point x="147" y="632"/>
      <point x="160" y="612"/>
      <point x="186" y="612" type="curve" smooth="yes" name="dv01"/>
      <point x="212" y="612"/>
      <point x="224" y="631"/>
      <point x="224" y="650" type="curve" smooth="yes"/>
      <point x="224" y="669"/>
      <point x="212" y="687"/>
      <point x="186" y="687" type="curve" smooth="yes" name="dv02"/>
      <point x="160" y="687"/>
      <point x="147" y="668"/>
    </contour>
    <contour>
      <point x="326" y="-183" type="line"/>
      <point x="282" y="-171"/>
      <point x="259" y="-143"/>
      <point x="259" y="-103" type="curve" smooth="yes"/>
      <point x="259" y="-62"/>
      <point x="284" y="-22"/>
      <point x="325" y="0" type="curve"/>
      <point x="307" y="3" type="line"/>
      <point x="247" y="-12"/>
      <point x="204" y="-59"/>
      <point x="204" y="-108" type="curve" smooth="yes"/>
      <point x="204" y="-154"/>
      <point x="243" y="-196"/>
      <point x="290" y="-206" type="curve"/>
    </contour>
  </outline>
</glyph>
<glyph name="one.ss09" format="2">
  <advance width="544"/>
  <outline>
    <contour>
      <point x="252" y="0" type="line"/>
      <point x="312" y="0" type="line"/>
      <point x="312" y="700" type="line"/>
      <point x="257" y="700" type="line"/>
      <point x="257" y="615.645"/>
      <point x="181.8" y="559.645"/>
      <point x="78" y="560" type="curve"/>
      <point x="78" y="506" type="line"/>
      <point x="178.8" y="506"/>
      <point x="252" y="551.6"/>
      <point x="252" y="620" type="curve"/>
    </contour>
    <contour>
      <point x="70" y="0" type="line"/>
      <point x="474" y="0" type="line"/>
      <point x="474" y="54" type="line"/>
      <point x="70" y="54" type="line"/>
    </contour>
  </outline>
</glyph>
<glyph name="s.ss09" format="2">
  <advance width="510"/>
  <anchor x="255" y="-20" name="bottom"/>
  <anchor x="245" y="520" name="top"/>
  <outline>
    <contour>
      <point x="67" y="149" type="line"/>
      <point x="78" y="40"/>
      <point x="148" y="-20"/>
      <point x="260" y="-20" type="curve" smooth="yes"/>
      <point x="372" y="-20"/>
      <point x="432" y="40"/>
      <point x="432" y="126" type="curve" smooth="yes"/>
      <point x="432" y="221"/>
      <point x="358" y="264"/>
      <point x="249" y="279" type="curve" smooth="yes"/>
      <point x="144" y="294"/>
      <point x="127" y="327"/>
      <point x="127" y="372" type="curve" smooth="yes"/>
      <point x="127" y="440"/>
      <point x="165" y="469"/>
      <point x="234" y="469" type="curve" smooth="yes"/>
      <point x="324" y="469"/>
      <point x="369" y="420"/>
      <point x="372" y="351" type="curve"/>
      <point x="432" y="351" type="line"/>
      <point x="421" y="459"/>
      <point x="352" y="520"/>
      <point x="240" y="520" type="curve" smooth="yes"/>
      <point x="132" y="520"/>
      <point x="67" y="464"/>
      <point x="67" y="371" type="curve" smooth="yes"/>
      <point x="67" y="288"/>
      <point x="118" y="247"/>
      <point x="240" y="230" type="curve" smooth="yes"/>
      <point x="340" y="216"/>
      <point x="372" y="189"/>
      <point x="372" y="130" type="curve" smooth="yes"/>
      <point x="372" y="63"/>
      <point x="331" y="31"/>
      <point x="259" y="31" type="curve" smooth="yes"/>
      <point x="174" y="31"/>
      <point x="130" y="75"/>
      <point x="127" y="149" type="curve"/>
    </contour>
  </outline>
</glyph>
<glyph name="scedilla.ss12" format="2">
  <advance width="510"/>
  <anchor x="245" y="520" name="top"/>
  <anchor x="245" y="-218" name="bottom"/>
  <outline>
    <contour>
      <point x="67" y="69" type="line"/>
      <point x="124" y="5"/>
      <point x="179" y="-20"/>
      <point x="254" y="-20" type="curve" smooth="yes"/>
      <point x="367" y="-20"/>
      <point x="432" y="36"/>
      <point x="432" y="129.673" type="curve" smooth="yes"/>
      <point x="432" y="226.661"/>
      <point x="347.208" y="255.26"/>
      <point x="267.04" y="272.844" type="curve" smooth="yes"/>
      <point x="195.162" y="288.611"/>
      <point x="127" y="295.562"/>
      <point x="127" y="372.672" type="curve" smooth="yes"/>
      <point x="127" y="431"/>
      <point x="166" y="469"/>
      <point x="240" y="469" type="curve" smooth="yes"/>
      <point x="306" y="469"/>
      <point x="343" y="445"/>
      <point x="405" y="397" type="curve"/>
      <point x="412" y="442" type="line"/>
      <point x="369" y="492"/>
      <point x="302" y="520"/>
      <point x="232" y="520" type="curve" smooth="yes"/>
      <point x="131" y="520"/>
      <point x="67" y="463"/>
      <point x="67" y="371.947" type="curve" smooth="yes"/>
      <point x="67" y="277.126"/>
      <point x="151.816" y="248.386"/>
      <point x="231.995" y="230.671" type="curve" smooth="yes"/>
      <point x="303.86" y="214.792"/>
      <point x="372" y="199.737"/>
      <point x="372" y="124.258" type="curve" smooth="yes"/>
      <point x="372" y="65"/>
      <point x="330" y="30"/>
      <point x="255" y="30" type="curve" smooth="yes"/>
      <point x="191" y="30"/>
      <point x="134" y="56"/>
      <point x="74" y="114" type="curve"/>
    </contour>
    <contour>
      <point x="154" y="-205" type="line"/>
      <point x="174" y="-211"/>
      <point x="197" y="-218"/>
      <point x="235" y="-218" type="curve" smooth="yes"/>
      <point x="313" y="-218"/>
      <point x="354" y="-188"/>
      <point x="354" y="-140" type="curve" smooth="yes"/>
      <point x="354" y="-92"/>
      <point x="314" y="-64"/>
      <point x="256" y="-64" type="curve"/>
      <point x="296.194" y="12.137" type="line"/>
      <point x="251.194" y="12.137" type="line"/>
      <point x="201" y="-82" type="line"/>
      <point x="213" y="-79"/>
      <point x="223" y="-78"/>
      <point x="233" y="-78" type="curve" smooth="yes"/>
      <point x="278" y="-78"/>
      <point x="302" y="-98"/>
      <point x="302" y="-132" type="curve" smooth="yes"/>
      <point x="302" y="-166"/>
      <point x="277" y="-188"/>
      <point x="232" y="-188" type="curve" smooth="yes"/>
      <point x="211" y="-188"/>
      <point x="187" y="-183"/>
      <point x="169" y="-177" type="curve"/>
    </contour>
  </outline>
</glyph>
<glyph name="shchacyr.loclBGR" format="2">
  <advance width="955"/>
  <outline>
    <contour>
      <point x="827" y="500" type="line" name="ab01"/>
      <point x="767" y="500" type="line" name="sh01"/>
      <point x="767" y="0" type="line" name="av01"/>
      <point x="827" y="0" type="line"/>
    </contour>
    <contour>
      <point x="489" y="500" type="line" name="ab01"/>
      <point x="429" y="500" type="line"/>
      <point x="429" y="186" type="line" smooth="yes"/>
      <point x="429" y="39"/>
      <point x="489" y="-20"/>
      <point x="576" y="-20" type="curve" smooth="yes" name="at01"/>
      <point x="681" y="-20"/>
      <point x="764" y="65"/>
      <point x="771" y="173" type="curve"/>
      <point x="770" y="223" type="line"/>
      <point x="767" y="263" type="line" name="iv01"/>
      <point x="767" y="117"/>
      <point x="706" y="31"/>
      <point x="598" y="31" type="curve" smooth="yes" name="sv01"/>
      <point x="527" y="31"/>
      <point x="489" y="69"/>
      <point x="489" y="193" type="curve" smooth="yes"/>
    </contour>
    <contour>
      <point x="152" y="500" type="line" name="ab01"/>
      <point x="92" y="500" type="line"/>
      <point x="92" y="186" type="line" smooth="yes"/>
      <point x="92" y="39"/>
      <point x="152" y="-20"/>
      <point x="239" y="-20" type="curve" smooth="yes" name="at01"/>
      <point x="344" y="-20"/>
      <point x="427" y="65"/>
      <point x="434" y="173" type="curve"/>
      <point x="433" y="223" type="line"/>
      <point x="429" y="263" type="line" name="iv01"/>
      <point x="429" y="117"/>
      <point x="368" y="31"/>
      <point x="261" y="31" type="curve" smooth="yes" name="sv01"/>
      <point x="190" y="31"/>
      <point x="152" y="69"/>
      <point x="152" y="193" type="curve" smooth="yes"/>
    </contour>
    <contour>
      <point x="919" y="-140" type="line"/>
      <point x="919" y="17"/>
      <point x="899" y="49"/>
      <point x="798" y="49" type="curve"/>
      <point x="798" y="0" type="line"/>
      <point x="866" y="0"/>
      <point x="864" y="-52"/>
      <point x="864" y="-140" type="curve"/>
    </contour>
  </outline>
</glyph>
<glyph name="sigmafinal.ss10" format="2">
  <advance width="567"/>
  <anchor x="288" y="519" name="topgr"/>
  <outline>
    <contour>
      <point x="494" y="-200" type="line"/>
      <point x="504" y="-185"/>
      <point x="525" y="-151"/>
      <point x="525" y="-102" type="curve" smooth="yes"/>
      <point x="525" y="20"/>
      <point x="396.09" y="31"/>
      <point x="339.248" y="31" type="curve" smooth="yes"/>
      <point x="191.053" y="31"/>
      <point x="120" y="107"/>
      <point x="120" y="250" type="curve" smooth="yes"/>
      <point x="120" y="389"/>
      <point x="188.159" y="469"/>
      <point x="298.026" y="469" type="curve" smooth="yes"/>
      <point x="371.271" y="469"/>
      <point x="441.464" y="434"/>
      <point x="473" y="383" type="curve"/>
      <point x="493" y="445" type="line"/>
      <point x="449.396" y="493"/>
      <point x="380.44" y="520"/>
      <point x="301.344" y="520" type="curve" smooth="yes"/>
      <point x="150.251" y="520"/>
      <point x="60" y="421"/>
      <point x="60" y="253" type="curve" smooth="yes"/>
      <point x="60" y="89"/>
      <point x="145.819" y="-20"/>
      <point x="343" y="-20" type="curve" smooth="yes"/>
      <point x="369" y="-20"/>
      <point x="465" y="-18"/>
      <point x="465" y="-108" type="curve" smooth="yes"/>
      <point x="465" y="-142"/>
      <point x="451" y="-178"/>
      <point x="434" y="-200" type="curve"/>
    </contour>
  </outline>
</glyph>
<glyph name="vecyr.loclBGR" format="2">
  <advance width="527"/>
  <anchor x="274" y="736" name="top"/>
  <anchor x="263" y="-20" name="bottom"/>
  <outline>
    <contour>
      <point x="376.22" y="394.8" type="curve"/>
      <point x="426.06" y="426.05"/>
      <point x="456" y="481.02"/>
      <point x="456" y="555.62" type="curve" smooth="yes"/>
      <point x="456" y="673.02"/>
      <point x="390" y="750.02"/>
      <point x="274.23" y="750.02" type="curve" smooth="yes"/>
      <point x="157.25" y="750.02"/>
      <point x="90.37" y="691.3"/>
      <point x="90.37" y="589.86" type="curve" smooth="yes"/>
      <point x="90.37" y="140.16" type="line" smooth="yes"/>
      <point x="90.37" y="38.71"/>
      <point x="160.9" y="-20"/>
      <point x="284.27" y="-20" type="curve" smooth="yes"/>
      <point x="406.38" y="-20"/>
      <point x="476" y="67"/>
      <point x="476" y="199.63" type="curve" smooth="yes"/>
      <point x="476" y="295.93"/>
      <point x="439.91" y="363.3"/>
    </contour>
    <contour>
      <point x="289.89" y="365" type="line" smooth="yes"/>
      <point x="366.83" y="365"/>
      <point x="416" y="302.89"/>
      <point x="416" y="196.68" type="curve" smooth="yes"/>
      <point x="416" y="92.09"/>
      <point x="369.06" y="30"/>
      <point x="282.55" y="30" type="curve" smooth="yes"/>
      <point x="196.88" y="30"/>
      <point x="150.44" y="69.02"/>
      <point x="150.37" y="136.53" type="curve" smooth="yes"/>
      <point x="150.13" y="365" type="line"/>
    </contour>
    <contour>
      <point x="150.37" y="593.48" type="line" smooth="yes"/>
      <point x="150.44" y="661"/>
      <point x="196.16" y="700.02"/>
      <point x="275.37" y="700.02" type="curve" smooth="yes"/>
      <point x="355.37" y="700.02"/>
      <point x="396" y="647.19"/>
      <point x="396" y="558.21" type="curve" smooth="yes"/>
      <point x="396" y="467.85"/>
      <point x="350" y="415.02"/>
      <point x="278" y="415.02" type="curve" smooth="yes"/>
      <point x="150.19" y="415.02" type="line"/>
    </contour>
  </outline>
</glyph>
<glyph name="y.ss09" format="2">
  <advance width="595"/>
  <anchor x="291" y="520" name="top"/>
  <anchor x="542" y="-49" name="bottom"/>
  <outline>
    <contour>
      <point x="448" y="150" type="curve"/>
      <point x="442" y="231" type="line"/>
      <point x="442" y="121"/>
      <point x="367" y="67"/>
      <point x="284" y="67" type="curve" smooth="yes"/>
      <point x="192.517" y="67"/>
      <point x="144" y="118.636"/>
      <point x="144" y="216" type="curve" smooth="yes"/>
      <point x="144" y="500" type="line"/>
      <point x="84" y="500" type="line"/>
      <point x="84" y="216" type="line" smooth="yes"/>
      <point x="84" y="88.44"/>
      <point x="145.493" y="17"/>
      <point x="273" y="17" type="curve" smooth="yes"/>
      <point x="356" y="17"/>
      <point x="429" y="64"/>
    </contour>
    <contour>
      <point x="82" y="-33" type="line" name="sv12"/>
      <point x="89.527" y="-162.036"/>
      <point x="154.62" y="-220"/>
      <point x="292" y="-220" type="curve" smooth="yes" name="dv01"/>
      <point x="434.917" y="-220"/>
      <point x="502" y="-139.5"/>
      <point x="502" y="32" type="curve" smooth="yes"/>
      <point x="502" y="500" type="line"/>
      <point x="442" y="500" type="line"/>
      <point x="442" y="20" type="line" smooth="yes"/>
      <point x="442" y="-115.567"/>
      <point x="399.026" y="-170"/>
      <point x="292" y="-170" type="curve" smooth="yes" name="dv02"/>
      <point x="191.288" y="-170"/>
      <point x="147.086" y="-129.628"/>
      <point x="142" y="-33" type="curve" name="sv04"/>
    </contour>
  </outline>
</glyph>
